<svg xmlns="http://www.w3.org/2000/svg" id="Layer_2" viewBox="0 0 853.11 108.95"><defs><style>.cls-1{fill:#fff;stroke-width:0px;}</style></defs><g id="Layer_1-2"><polygon class="cls-1" points="181.23 48.26 142.55 48.26 142.55 12.92 127.42 12.92 127.42 96.4 142.55 96.4 142.55 60.93 181.23 60.93 181.23 96.4 196.4 96.4 196.4 12.92 181.23 12.92 181.23 48.26"></polygon><path class="cls-1" d="M327.19,47.93c7.81-5.38,18.78-1.56,20.29,8.07h13.93c-1.06-20.75-26.54-27.52-42.24-18.17-18.57,11.16-18.69,44.5-.12,55.73,16.13,9.34,41,2.85,42.36-18.27h-13.93c-1.35,9.68-12.9,13.41-20.35,8.03-9.52-6.9-9.62-28.55.06-35.38Z"></path><path class="cls-1" d="M414.17,36.74c-10.12-5.55-25.72-2.9-30,8.72h-.73V12.92h-14.43v83.48h14.76v-35.65c-.32-8.1,5.47-14.47,13.53-14.27,8.07-.03,12.37,5.36,12.31,13.37,0,0,0,36.54,0,36.54h14.76v-38.83c0-8.93-2.83-16.57-10.19-20.83Z"></path><polygon class="cls-1" points="516.77 12.75 501.73 74.14 500.99 74.14 484.89 12.75 470.09 12.75 454.04 74.1 453.26 74.1 438.22 12.75 421.95 12.75 445.52 96.24 460.44 96.24 477.19 37.66 477.84 37.66 494.55 96.24 509.47 96.24 533.03 12.75 516.77 12.75"></polygon><path class="cls-1" d="M573.96,37.77c-4.43-2.66-9.66-3.98-15.7-3.98s-11.27,1.33-15.7,3.98c-4.43,2.66-7.86,6.39-10.28,11.19-2.43,4.8-3.64,10.4-3.64,16.78s1.21,11.97,3.64,16.74c2.43,4.78,5.86,8.49,10.28,11.15,4.43,2.66,9.66,3.99,15.7,3.99s11.27-1.33,15.7-3.99c4.43-2.66,7.86-6.37,10.28-11.15,2.43-4.78,3.64-10.36,3.64-16.74s-1.21-11.98-3.64-16.78c-2.43-4.8-5.86-8.53-10.28-11.19ZM571.48,75.93c-1.09,3.06-2.73,5.49-4.93,7.31-2.2,1.81-4.94,2.72-8.21,2.72s-6.14-.91-8.35-2.72c-2.21-1.81-3.86-4.25-4.95-7.31-1.09-3.06-1.63-6.47-1.63-10.22s.54-7.21,1.63-10.28c1.09-3.07,2.74-5.52,4.95-7.35,2.21-1.82,5-2.74,8.35-2.74s6.01.91,8.21,2.74c2.2,1.83,3.84,4.27,4.93,7.35,1.09,3.07,1.63,6.5,1.63,10.28s-.54,7.16-1.63,10.22Z"></path><path class="cls-1" d="M625.57,37.66c-7.22-.03-13.32,4.28-15.45,11.33h-.65v-11.33h-14.31v58.74h14.76v-32.04c-.02-11.47,11.27-15.63,20.95-12.72v-13.57c-1.39-.29-3.84-.41-5.3-.41Z"></path><polygon class="cls-1" points="693.73 33.79 676.49 33.79 653.99 58.94 652.97 58.94 652.97 12.92 638.22 12.92 638.22 96.4 652.97 96.4 652.97 77.08 658.34 71.33 677.51 96.4 695.16 96.4 669.46 60.81 693.73 33.79"></polygon><path class="cls-1" d="M746.05,66.76c-2.9-2.77-7.3-4.8-13.23-6.07l-10.68-2.28c-4.99-1.34-8.64-2.4-8.84-7.26.07-5.13,5.92-7.19,10.8-7.17,5.45-.17,10.14,2.77,11.54,7.83l13.45-1.47c-2.48-12.16-12.29-17.44-25.19-17.36-12.07-.24-25.49,5.76-25.31,19,.05,15.83,15.6,17.22,28.29,19.89,2.88.63,5.01,1.52,6.38,2.69,3.19,2.71,2.59,7.48-1.14,9.78-6.48,4.11-19.37,2.77-20.89-6.4l-14.39,1.39c2.18,13.11,13.48,18.32,26.86,18.3,9.12,0,18.01-2.7,23.3-9.56,4.72-5.88,4.72-16.22-.94-21.3Z"></path><path class="cls-1" d="M790.35,12.92l-30.37,83.48h7.99l8.95-25.15h35.02l8.95,25.15h7.99l-30.37-83.48h-8.15ZM779.35,64.4l14.79-41.58h.57l14.79,41.58h-30.15Z"></path><rect class="cls-1" x="845.49" y="12.92" width="7.62" height="83.48"></rect><path class="cls-1" d="M55.8,59.05h-14.5c-2.12,0-3.83,1.72-3.83,3.83v14.5c0,2.12,1.72,3.84,3.83,3.84h14.5c2.12,0,3.83-1.71,3.83-3.83v-14.5c0-2.11-1.71-3.83-3.83-3.83"></path><path class="cls-1" d="M41.3,47.01h14.5c2.12,0,3.83-1.72,3.83-3.83v-14.5c0-2.12-1.72-3.83-3.83-3.83h-14.5c-2.12,0-3.83,1.71-3.84,3.83v14.5c0,2.12,1.72,3.83,3.83,3.83"></path><path class="cls-1" d="M37.46,12.81V0H2.22C1,0,.01.99.01,2.2v104.53c-.01,1.22.97,2.21,2.19,2.21h35.24s0-12.63,0-12.63h0s-23.4,0-23.4,0c-1.22,0-2.2-.99-2.2-2.21V15.01c.01-1.22,1-2.2,2.22-2.2h23.41Z"></path><path class="cls-1" d="M59.63,12.82V.01h35.24c1.22,0,2.21.98,2.21,2.2v104.53c.01,1.22-.97,2.21-2.19,2.21h-35.24s0-12.63,0-12.63h0s23.4,0,23.4,0c1.22,0,2.2-.99,2.2-2.21V15.02c-.01-1.22-1-2.2-2.22-2.2h-23.41Z"></path><path class="cls-1" d="M256.39,44.1c-4.4-8.38-14.35-11.08-23.17-11.13-11.01-.12-22.02,4.57-25.84,15.28l14.03,1.99c3.14-6.29,14.57-8.04,19.76-3.45,1.87,1.7,2.79,4.28,2.73,7.38-.18,3.64-2.95,3.91-6.56,4.59-12.85,1.52-33.19,2.02-32.69,20.08-.07,7.69,3.53,13.62,10.25,16.69,9.56,4.33,24.16,2.4,29.08-7.73h.49v8.6h14.19v-41.9c0-4.16-.75-7.62-2.26-10.4ZM243.94,73.94c.28,10.84-13.76,16.26-22.09,10.8-5.09-3.66-3.42-11.83,2.65-13.66,5.75-2.38,13.88-1.46,19.44-4.52v7.38Z"></path><path class="cls-1" d="M301.61,48.27l2.18-10.61h-15.94v-18.88h-14.76v18.88h-10.06v10.61h10.06v31.74c-.03,3.91.82,7.17,2.55,9.78,5.16,8.13,17.37,8.78,25.7,5.99l-2.49-11.54c-5.49,1.46-11.38.56-11.01-6.69,0,0,0-29.29,0-29.29h13.76Z"></path></g></svg>